# xmcd
#
# Track frame offsets:
#	150
#	34040
#	54775
#	81465
#	98105
#	113392
#	138905
#	161617
#	189074
#	206924
#	212246
#	255636
#	266466
#	282307
#	289590
#	303304
#	310820
#
# Disc length: 4518 seconds
#
# Revision: 0
# Processed by: cddbd v1.5.2PL0 Copyright (c) Steve Scherf et al.
# Submitted via: EZCDAudioConverter 2.1.7.1
#
DISCID=e811a411
DTITLE=V/A - 25 Years Of Mr. Bongo 1/2
DYEAR=1900
DGENRE=
TTITLE0=Incredible Bongo Band  - Apache [Grandmaster Flash Remix]
TTITLE1=Joyce - Aldeia De Ogum
TTITLE2=Seu Jorge  - Carolina
TTITLE3=Hollie Cook  and Prince Fatty - Milk and Honey
TTITLE4=Doris  - Did You Give The World Some Love Today, Baby
TTITLE5=Terry Callier and Massive Attack - Wings
TTITLE6=Seun Kuti - African Problems
TTITLE7=Ebo Taylor - Heaven
TTITLE8=C.K. Mann and His Carousel 7 - Asafo Beesuon Medley [Gruff and Grey Edit]
TTITLE9=Fab 5 Freddy  - Down By Law
TTITLE10=Atmosfear - Dancing In Outer Space
TTITLE11=Os Ipanemas  - Nanã (Tema De Ganga Zumba)
TTITLE12=Wilson Simonal - País Tropical
TTITLE13=Trio Mocotó - Swinga Sambaby
TTITLE14=Tom Zé - São São Paulo
TTITLE15=Lula Côrtes and Zé Ramalho - Beira Mar
TTITLE16=Blo - Chant To Mother Earth
EXTD=
EXTT0=
EXTT1=
EXTT2=
EXTT3=
EXTT4=
EXTT5=
EXTT6=
EXTT7=
EXTT8=
EXTT9=
EXTT10=
EXTT11=
EXTT12=
EXTT13=
EXTT14=
EXTT15=
EXTT16=
PLAYORDER=
